<?xml version="1.0" encoding="UTF-8" standalone="no"?>
<!DOCTYPE svg PUBLIC "-//W3C//DTD SVG 1.1//EN" "http://www.w3.org/Graphics/SVG/1.1/DTD/svg11.dtd">
<svg width="100%" height="100%" viewBox="0 0 100 100" version="1.1" xmlns="http://www.w3.org/2000/svg" xmlns:xlink="http://www.w3.org/1999/xlink" xml:space="preserve" xmlns:serif="http://www.serif.com/" style="fill-rule:evenodd;clip-rule:evenodd;stroke-linecap:round;stroke-linejoin:round;stroke-miterlimit:1.5;">
    <g transform="matrix(1,0,0,1,0,11.1111)">
        <path d="M0,0L100,0" style="fill:none;stroke:black;stroke-width:0.8px;"/>
    </g>
    <g transform="matrix(1,0,0,1,0,99.6)">
        <path d="M0,0L100,0" style="fill:none;stroke:black;stroke-width:0.8px;"/>
    </g>
    <g transform="matrix(1,0,0,1,0,44.4444)">
        <path d="M0,0L100,0" style="fill:none;stroke:black;stroke-width:0.8px;"/>
    </g>
    <g transform="matrix(1,0,0,1,0,88.8889)">
        <path d="M0,0L100,0" style="fill:none;stroke:black;stroke-width:0.8px;"/>
    </g>
    <g transform="matrix(1,0,0,1,0,33.3333)">
        <path d="M0,0L100,0" style="fill:none;stroke:black;stroke-width:0.8px;"/>
    </g>
    <g transform="matrix(1,0,0,1,0,77.7778)">
        <path d="M0,0L100,0" style="fill:none;stroke:black;stroke-width:0.8px;"/>
    </g>
    <g transform="matrix(1,0,0,1,0,22.2222)">
        <path d="M0,0L100,0" style="fill:none;stroke:black;stroke-width:0.8px;"/>
    </g>
    <g transform="matrix(1,0,0,1,0,66.6667)">
        <path d="M0,0L100,0" style="fill:none;stroke:black;stroke-width:0.8px;"/>
    </g>
    <g transform="matrix(1,0,0,1,0,0.4)">
        <path d="M0,0L100,0" style="fill:none;stroke:black;stroke-width:0.8px;"/>
    </g>
    <g transform="matrix(1,0,0,1,0,55.5556)">
        <path d="M0,0L100,0" style="fill:none;stroke:black;stroke-width:0.8px;"/>
    </g>
    <g transform="matrix(6.12323e-17,1,-1,6.12323e-17,88.8889,7.78579e-15)">
        <path d="M0,0L100,0" style="fill:none;stroke:black;stroke-width:0.8px;"/>
    </g>
    <g transform="matrix(6.12323e-17,1,-1,6.12323e-17,0.4,1.32287e-14)">
        <path d="M0,0L100,0" style="fill:none;stroke:black;stroke-width:0.8px;"/>
    </g>
    <g transform="matrix(6.12323e-17,1,-1,6.12323e-17,55.5556,9.82686e-15)">
        <path d="M0,0L100,0" style="fill:none;stroke:black;stroke-width:0.8px;"/>
    </g>
    <g transform="matrix(6.12323e-17,1,-1,6.12323e-17,11.1111,1.25483e-14)">
        <path d="M0,0L100,0" style="fill:none;stroke:black;stroke-width:0.8px;"/>
    </g>
    <g transform="matrix(6.12323e-17,1,-1,6.12323e-17,66.6667,9.14651e-15)">
        <path d="M0,0L100,0" style="fill:none;stroke:black;stroke-width:0.8px;"/>
    </g>
    <g transform="matrix(6.12323e-17,1,-1,6.12323e-17,22.2222,1.18679e-14)">
        <path d="M0,0L100,0" style="fill:none;stroke:black;stroke-width:0.8px;"/>
    </g>
    <g transform="matrix(6.12323e-17,1,-1,6.12323e-17,77.7778,8.46615e-15)">
        <path d="M0,0L100,0" style="fill:none;stroke:black;stroke-width:0.8px;"/>
    </g>
    <g transform="matrix(6.12323e-17,1,-1,6.12323e-17,33.3333,1.11876e-14)">
        <path d="M0,0L100,0" style="fill:none;stroke:black;stroke-width:0.8px;"/>
    </g>
    <g transform="matrix(6.12323e-17,1,-1,6.12323e-17,99.6,7.10543e-15)">
        <path d="M0,0L100,0" style="fill:none;stroke:black;stroke-width:0.8px;"/>
    </g>
    <g transform="matrix(6.12323e-17,1,-1,6.12323e-17,44.4444,1.05072e-14)">
        <path d="M0,0L100,0" style="fill:none;stroke:black;stroke-width:0.8px;"/>
    </g>
</svg>